<svg width="1200" height="720" viewBox="0 0 1200 720" fill="none" xmlns="http://www.w3.org/2000/svg">
  <rect width="1200" height="720" rx="32" fill="#090C16"/>
  <rect x="44" y="44" width="1112" height="632" rx="28" fill="#111827" stroke="#1F2937"/>
  <rect x="76" y="80" width="260" height="560" rx="20" fill="#0F172A"/>
  <text x="106" y="126" fill="#E5E7EB" font-size="22" font-family="Arial, sans-serif" font-weight="700">Dashboard</text>
  <text x="106" y="172" fill="#94A3B8" font-size="16" font-family="Arial, sans-serif">Conversations</text>
  <text x="106" y="206" fill="#94A3B8" font-size="16" font-family="Arial, sans-serif">CRM & Leads</text>
  <text x="106" y="240" fill="#94A3B8" font-size="16" font-family="Arial, sans-serif">Bookings</text>
  <text x="106" y="274" fill="#94A3B8" font-size="16" font-family="Arial, sans-serif">Analytics</text>
  <rect x="92" y="304" width="228" height="42" rx="21" fill="#1E293B"/>
  <text x="118" y="331" fill="#E5E7EB" font-size="16" font-family="Arial, sans-serif">Settings</text>
  <text x="370" y="124" fill="#E5E7EB" font-size="30" font-family="Arial, sans-serif" font-weight="700">Leads & Conversations</text>
  <rect x="370" y="152" width="742" height="2" fill="#1F2937"/>
  <rect x="370" y="182" width="356" height="130" rx="18" fill="#0B1220" stroke="#334155"/>
  <text x="396" y="225" fill="#93C5FD" font-size="18" font-family="Arial, sans-serif">Total Conversations</text>
  <text x="396" y="270" fill="#FFFFFF" font-size="46" font-family="Arial, sans-serif" font-weight="700">128</text>
  <rect x="756" y="182" width="356" height="130" rx="18" fill="#0B1220" stroke="#334155"/>
  <text x="782" y="225" fill="#86EFAC" font-size="18" font-family="Arial, sans-serif">Leads Captured</text>
  <text x="782" y="270" fill="#FFFFFF" font-size="46" font-family="Arial, sans-serif" font-weight="700">47</text>
  <rect x="370" y="338" width="742" height="300" rx="18" fill="#0B1220" stroke="#334155"/>
  <text x="396" y="374" fill="#E5E7EB" font-size="20" font-family="Arial, sans-serif" font-weight="700">Latest Customer Messages</text>
  <rect x="396" y="400" width="690" height="52" rx="12" fill="#111827"/>
  <text x="414" y="432" fill="#CBD5E1" font-size="15" font-family="Arial, sans-serif">"Hi, do you have SUV available this weekend?"</text>
  <rect x="396" y="466" width="690" height="52" rx="12" fill="#111827"/>
  <text x="414" y="498" fill="#CBD5E1" font-size="15" font-family="Arial, sans-serif">"Can I pay when I pick up the car?"</text>
  <rect x="396" y="532" width="690" height="52" rx="12" fill="#111827"/>
  <text x="414" y="564" fill="#CBD5E1" font-size="15" font-family="Arial, sans-serif">"Please book for Monday, my name is Ali."</text>
</svg>