<svg width="1200" height="720" viewBox="0 0 1200 720" fill="none" xmlns="http://www.w3.org/2000/svg">
  <rect width="1200" height="720" rx="32" fill="#090C16"/>
  <rect x="48" y="48" width="1104" height="624" rx="28" fill="#111827" stroke="#1F2937"/>
  <rect x="80" y="88" width="1040" height="72" rx="16" fill="#0F172A"/>
  <text x="110" y="132" fill="#E5E7EB" font-size="26" font-family="Arial, sans-serif" font-weight="700">First-Time Setup Wizard</text>
  <rect x="80" y="190" width="1040" height="12" rx="6" fill="#1F2937"/>
  <rect x="80" y="190" width="540" height="12" rx="6" fill="#2563EB"/>
  <text x="80" y="240" fill="#93C5FD" font-size="20" font-family="Arial, sans-serif" font-weight="700">Step 2 of 5: Business Info</text>
  <rect x="80" y="270" width="500" height="88" rx="16" fill="#0B1220" stroke="#334155"/>
  <text x="108" y="307" fill="#E5E7EB" font-size="18" font-family="Arial, sans-serif">Business Name</text>
  <text x="108" y="336" fill="#64748B" font-size="15" font-family="Arial, sans-serif">CypAI Car Rentals</text>
  <rect x="620" y="270" width="500" height="88" rx="16" fill="#0B1220" stroke="#334155"/>
  <text x="648" y="307" fill="#E5E7EB" font-size="18" font-family="Arial, sans-serif">Business Type</text>
  <text x="648" y="336" fill="#64748B" font-size="15" font-family="Arial, sans-serif">Car Rental</text>
  <rect x="80" y="384" width="1040" height="88" rx="16" fill="#0B1220" stroke="#334155"/>
  <text x="108" y="421" fill="#E5E7EB" font-size="18" font-family="Arial, sans-serif">WhatsApp Number</text>
  <text x="108" y="450" fill="#64748B" font-size="15" font-family="Arial, sans-serif">+90 533 000 0000</text>
  <rect x="80" y="498" width="1040" height="88" rx="16" fill="#0B1220" stroke="#334155"/>
  <text x="108" y="535" fill="#E5E7EB" font-size="18" font-family="Arial, sans-serif">Website URL (optional)</text>
  <text x="108" y="564" fill="#64748B" font-size="15" font-family="Arial, sans-serif">https://yourbusiness.com</text>
  <rect x="934" y="608" width="186" height="44" rx="22" fill="#2563EB"/>
  <text x="996" y="636" fill="#FFFFFF" font-size="18" font-family="Arial, sans-serif" font-weight="700">Next</text>
</svg>